HIERARCHY
ROOT Hips
{
	OFFSET 0.00000 0.00000 0.00000
	CHANNELS 6 Xposition Yposition Zposition Zrotation Yrotation Xrotation 
	JOINT LHipJoint
	{
		OFFSET 0 0 0
		CHANNELS 3 Zrotation Yrotation Xrotation
		JOINT LeftHip
		{
			OFFSET 1.80322 -1.53100 0.99595
			CHANNELS 3 Zrotation Yrotation Xrotation
			JOINT LeftKnee
			{
				OFFSET 2.25177 -6.18669 0.00000
				CHANNELS 3 Zrotation Yrotation Xrotation
				JOINT LeftAnkle
				{
					OFFSET 2.26601 -6.22582 0.00000
					CHANNELS 3 Zrotation Yrotation Xrotation
					JOINT LeftToe
					{
						OFFSET 0.23701 -0.65119 2.15848
						CHANNELS 3 Zrotation Yrotation Xrotation
						End Site
						{
							OFFSET 0.00000 -0.00000 1.12949
						}
					}
				}
			}
		}
	}
	JOINT RHipJoint
	{
		OFFSET 0 0 0
		CHANNELS 3 Zrotation Yrotation Xrotation
		JOINT RightHip
		{
			OFFSET -1.93977 -1.53100 0.99595
			CHANNELS 3 Zrotation Yrotation Xrotation
			JOINT RightKnee
			{
				OFFSET -2.28036 -6.26523 0.00000
				CHANNELS 3 Zrotation Yrotation Xrotation
				JOINT RightAnkle
				{
					OFFSET -2.25490 -6.19528 0.00000
					CHANNELS 3 Zrotation Yrotation Xrotation
					JOINT RightToe
					{
						OFFSET -0.28375 -0.77960 2.23137
						CHANNELS 3 Zrotation Yrotation Xrotation
						End Site
						{
							OFFSET -0.00000 -0.00000 1.17899
						}
					}
				}
			}
		}
	}
	JOINT lowerback
	{
		OFFSET 0 0 0
		CHANNELS 3 Zrotation Yrotation Xrotation
		JOINT Chest
		{
			OFFSET -0.00088 2.12090 -0.02806
			CHANNELS 3 Zrotation Yrotation Xrotation
			JOINT Chest2
			{
				OFFSET -0.00286 2.09666 0.12974
				CHANNELS 3 Zrotation Yrotation Xrotation
				JOINT lowerneck
				{
					OFFSET 0 0 0
					CHANNELS 3 Zrotation Yrotation Xrotation
					JOINT Neck
					{
						OFFSET 0.07328 1.83526 0.07290
						CHANNELS 3 Zrotation Yrotation Xrotation
						JOINT Head
						{
							OFFSET -0.06683 1.74974 -0.49542
							CHANNELS 3 Zrotation Yrotation Xrotation
							End Site
							{
								OFFSET -0.03398 1.85163 -0.17573
							}
						}
					}
				}
				JOINT LeftCollar
				{
					OFFSET 0 0 0
					CHANNELS 3 Zrotation Yrotation Xrotation
					JOINT LeftShoulder
					{
						OFFSET 3.02113 1.18018 0.40602
CHANNELS 3 Zrotation Xrotation Yrotation
						JOINT LeftElbow
						{
OFFSET 0 -4.585380 -0.000000
CHANNELS 3 Zrotation Xrotation Yrotation
							JOINT LeftWrist
							{
OFFSET 0 -2.689350 -0.000000
CHANNELS 3 Zrotation Xrotation Yrotation
								JOINT lhand
								{
									OFFSET 0 0 0
CHANNELS 3 Zrotation Xrotation Yrotation
									JOINT LFingers
									{
OFFSET 0 -0.585060 -0.000000
CHANNELS 3 Zrotation Xrotation Yrotation
										End Site
										{
OFFSET 0 -0.471690 -0.000000
										}
									}
								}
								JOINT LThumb
								{
OFFSET 0 0.000000 0.000000
CHANNELS 3 Zrotation Xrotation Yrotation
									End Site
									{
OFFSET 0 -0.478890 0.478890
									}
								}
							}
						}
					}
				}
				JOINT RightCollar
				{
					OFFSET 0 0 0
					CHANNELS 3 Zrotation Yrotation Xrotation
					JOINT RightShoulder
					{
						OFFSET -2.95074 1.18843 0.31430
CHANNELS 3 Zrotation Xrotation Yrotation
						JOINT RightElbow
						{
OFFSET 0 -4.474500 -0.000000
CHANNELS 3 Zrotation Xrotation Yrotation
							JOINT RightWrist
							{
OFFSET 0 -2.938960 -0.000000
CHANNELS 3 Zrotation Xrotation Yrotation
								JOINT rhand
								{
									OFFSET 0 0 0
CHANNELS 3 Zrotation Xrotation Yrotation
									JOINT RFingers
									{
OFFSET 0 -0.405090 -0.000000
CHANNELS 3 Zrotation Xrotation Yrotation
										End Site
										{
OFFSET 0 -0.326600 -0.000000
										}
									}
								}
								JOINT RThumb
								{
OFFSET 0 0.000000 0.000000
CHANNELS 3 Zrotation Xrotation Yrotation
									End Site
									{
OFFSET 0 -0.331580 0.331580
									}
								}
							}
						}
					}
				}
			}
		}
	}
}
MOTION
Frames: 12
Frame Time: 0.008333333333333333
0.131700 15.577900 -7.178200 1.946800 -1.288100 11.312600 0.000000 0.000000 0.000000 -22.420100 -17.384700 -10.025400 1.787500 8.408600 23.962300 0.811400 10.843300 -24.178600 0.003700 0.394600 1.084200 0.000000 0.000000 0.000000 17.611000 13.890300 -18.968700 -3.358800 -11.254400 33.142600 -1.225200 -9.321200 -26.189900 -0.014300 -0.770900 2.118700 -0.781600 -0.865000 -6.779100 -0.825900 -1.165600 -8.306500 -0.447700 -0.572300 -4.827800 12.207400 5.682800 -10.197000 -6.074800 7.931800 40.417400 -3.550700 4.393800 17.334700 0.000000 0.000000 0.000000 3.728400 20.124400 -27.255300 19.366000 -29.871000 5.211900 -1.846200 13.876000 -17.062900 0.000000 0.000000 0.000000 -7.125000 0.000000 0.000000 -27.334000 45.104800 0.076600 0.000000 0.000000 0.000000 -4.987300 13.812800 26.145300 -14.174000 -22.982900 -2.895700 -7.724500 15.890400 5.699400 0.000000 0.000000 0.000000 7.125000 0.000000 -0.000000 15.720400 35.353200 3.845800
0.125907 15.576630 -7.147303 1.985512 -1.257625 11.261384 0.000000 0.000000 0.000000 -22.499440 -17.279389 -9.775553 1.767544 8.364111 23.825716 0.822665 10.770453 -24.206574 0.003908 0.402739 1.106608 0.000000 0.000000 0.000000 17.643946 13.817863 -18.827352 -3.366071 -11.265256 33.179807 -1.230539 -9.400435 -26.290426 -0.013454 -0.748641 2.057492 -0.742304 -0.809441 -6.876683 -0.885752 -1.092501 -8.285744 -0.531532 -0.539797 -4.752940 12.019559 5.498682 -10.122619 -5.888020 7.641167 40.677088 -3.494977 4.275868 17.396558 0.000000 0.000000 0.000000 3.527571 20.298964 -27.045961 19.233724 -29.708077 5.146162 -2.611216 14.304683 -16.484150 0.000000 0.000000 0.000000 -7.125000 0.000000 0.000000 -27.724182 44.499566 -0.372375 0.000000 0.000000 0.000000 -4.737613 13.648638 27.307383 -14.544298 -23.507500 -3.041916 -7.845774 15.040179 5.826589 0.000000 0.000000 0.000000 7.125000 0.000000 0.000000 15.648348 35.483106 3.775646
0.118990 15.574484 -7.109843 1.998159 -1.191647 11.215400 0.000000 0.000000 0.000000 -22.538408 -17.177329 -9.536273 1.757545 8.341574 23.756608 0.846906 10.612485 -24.267139 0.004600 0.438453 1.204859 0.000000 0.000000 0.000000 17.728732 13.876489 -18.582414 -3.371084 -11.272869 33.205706 -1.227751 -9.637511 -26.452165 -0.013292 -0.744527 2.046214 -0.709545 -0.771276 -7.086602 -0.930053 -1.040204 -8.259859 -0.597651 -0.516933 -4.609366 11.840352 5.312766 -10.131357 -5.664606 7.321512 41.010935 -3.429292 4.152066 17.520340 0.000000 0.000000 0.000000 3.397145 20.460591 -26.913236 19.294465 -29.782885 5.176279 -2.139924 14.412856 -15.812072 0.000000 0.000000 0.000000 -7.125000 0.000000 0.000000 -27.031713 43.955568 -0.755345 0.000000 0.000000 0.000000 -4.489050 13.562702 28.411867 -15.056119 -24.224150 -3.248903 -7.879891 13.870096 5.993835 0.000000 0.000000 0.000000 7.125000 0.000000 0.000000 15.655209 35.647515 3.712415
0.110873 15.573538 -7.071076 1.974823 -1.099226 11.205027 0.000000 0.000000 0.000000 -22.517591 -17.088494 -9.373508 1.754815 8.335591 23.738012 0.870118 10.455281 -24.320333 0.004862 0.449521 1.235091 0.000000 0.000000 0.000000 17.854734 13.934997 -18.345195 -3.367644 -11.267635 33.187973 -1.219059 -9.878781 -26.575395 -0.013462 -0.749365 2.059385 -0.678132 -0.746412 -7.334511 -0.939562 -1.004614 -8.278012 -0.627347 -0.501123 -4.491276 11.633419 5.142725 -10.128479 -5.422010 7.023783 41.276008 -3.342552 4.034599 17.604439 0.000000 0.000000 0.000000 3.345450 20.471517 -26.758114 19.346145 -29.846542 5.202041 -1.048851 14.745206 -15.144506 0.000000 0.000000 0.000000 -7.125000 0.000000 0.000000 -25.830962 43.478681 -1.044476 0.000000 0.000000 0.000000 -4.323505 13.587568 29.463364 -15.585072 -24.954806 -3.469090 -7.740220 12.716283 6.226958 0.000000 0.000000 0.000000 7.125000 0.000000 0.000000 15.817351 35.865960 3.665944
0.102365 15.571837 -7.033927 1.952206 -0.979714 11.214894 0.000000 0.000000 0.000000 -22.492590 -17.065200 -9.226863 1.754084 8.333869 23.732790 0.892265 10.345254 -24.406607 0.004800 0.446263 1.226341 0.000000 0.000000 0.000000 17.972636 13.925289 -18.153545 -3.363769 -11.261753 33.167943 -1.216241 -10.060004 -26.697455 -0.013216 -0.743094 2.042251 -0.661626 -0.713762 -7.525133 -0.948677 -0.959580 -8.342975 -0.646730 -0.479682 -4.454573 11.487438 4.994728 -10.165624 -5.251279 6.763497 41.416160 -3.288037 3.930142 17.641192 0.000000 0.000000 0.000000 3.434478 20.379587 -26.661381 19.450824 -29.974991 5.254170 0.066988 14.912871 -14.736970 0.000000 0.000000 0.000000 -7.125000 0.000000 0.000000 -24.724021 43.231438 -1.155215 0.000000 0.000000 0.000000 -4.188957 13.687866 30.138027 -15.941518 -25.441327 -3.620817 -7.674262 12.047913 6.391098 0.000000 0.000000 0.000000 7.125000 0.000000 0.000000 15.905756 36.021378 3.625258
0.093886 15.569322 -7.002719 1.935593 -0.833878 11.222919 0.000000 0.000000 0.000000 -22.466826 -17.086595 -9.100326 1.755787 8.337644 23.744372 0.910888 10.258620 -24.484729 0.004830 0.449886 1.236037 0.000000 0.000000 0.000000 18.075402 13.855503 -18.006436 -3.361313 -11.258134 33.155624 -1.222835 -10.167195 -26.831276 -0.013839 -0.759472 2.087172 -0.662161 -0.696938 -7.635390 -0.951073 -0.936281 -8.428750 -0.649143 -0.467786 -4.484650 11.408956 4.887584 -10.210931 -5.141107 6.569185 41.467063 -3.258593 3.853803 17.645414 0.000000 0.000000 0.000000 3.609049 20.201951 -26.571802 19.629352 -30.193234 5.343695 0.733163 14.743585 -14.788904 0.000000 0.000000 0.000000 -7.125000 0.000000 0.000000 -24.179240 43.350466 -1.050302 0.000000 0.000000 0.000000 -4.097559 13.753543 30.401074 -16.003046 -25.524753 -3.647280 -7.652171 11.931908 6.495778 0.000000 0.000000 0.000000 7.125000 0.000000 0.000000 15.946091 36.121509 3.594633
0.085894 15.567676 -6.978135 1.916682 -0.718569 11.257948 0.000000 0.000000 0.000000 -22.427017 -17.115677 -9.035187 1.756959 8.340370 23.752764 0.923330 10.204805 -24.540307 0.004476 0.430829 1.183905 0.000000 0.000000 0.000000 18.156189 13.802087 -17.927435 -3.359047 -11.254771 33.144112 -1.229977 -10.223753 -26.928813 -0.014624 -0.781382 2.147400 -0.683871 -0.674446 -7.718513 -0.958971 -0.904334 -8.465124 -0.644918 -0.450723 -4.476976 11.403506 4.833340 -10.419181 -5.027104 6.411221 41.453023 -3.228811 3.800234 17.664988 0.000000 0.000000 0.000000 3.866793 19.886083 -26.627203 19.843340 -30.453176 5.451714 1.318186 14.607233 -14.870642 0.000000 0.000000 0.000000 -7.125000 0.000000 0.000000 -23.712716 43.488449 -0.941240 0.000000 0.000000 0.000000 -4.037376 13.673851 30.300601 -15.856044 -25.325072 -3.584187 -7.734703 12.343221 6.421627 0.000000 0.000000 0.000000 7.125000 0.000000 0.000000 15.863144 36.054468 3.601624
0.079903 15.567955 -6.956356 1.930746 -0.649834 11.354684 0.000000 0.000000 0.000000 -22.411879 -17.180129 -9.013927 1.751425 8.327996 23.714755 0.929452 10.188196 -24.575990 0.004577 0.436291 1.198887 0.000000 0.000000 0.000000 18.168623 13.765499 -17.944572 -3.361110 -11.257865 33.154394 -1.239262 -10.233556 -27.004735 -0.014123 -0.767279 2.108634 -0.736936 -0.639004 -7.809971 -0.978582 -0.854455 -8.520226 -0.634699 -0.423302 -4.484307 11.403479 4.791535 -10.638680 -4.876539 6.252553 41.405638 -3.181666 3.751193 17.667176 0.000000 0.000000 0.000000 4.138474 19.642765 -26.826479 20.110847 -30.775716 5.587988 1.807321 14.444101 -14.913011 0.000000 0.000000 0.000000 -7.125000 0.000000 0.000000 -23.311140 43.580386 -0.867009 0.000000 0.000000 0.000000 -4.035367 13.628744 29.975585 -15.677429 -25.081253 -3.508107 -7.864608 12.763752 6.351410 0.000000 0.000000 0.000000 7.125000 0.000000 0.000000 15.742496 35.993875 3.596586
0.075343 15.568531 -6.937990 1.929164 -0.611061 11.499050 0.000000 0.000000 0.000000 -22.365613 -17.250342 -9.074884 1.749500 8.323531 23.701131 0.935714 10.171569 -24.612874 0.004600 0.439049 1.206410 0.000000 0.000000 0.000000 18.176198 13.806401 -18.007687 -3.360606 -11.257143 33.152098 -1.242826 -10.278915 -27.066179 -0.014231 -0.768979 2.113417 -0.762084 -0.617656 -7.906079 -0.981657 -0.824817 -8.628984 -0.623396 -0.407090 -4.546674 11.374670 4.751468 -10.716601 -4.736429 6.126182 41.336125 -3.130315 3.710811 17.622359 0.000000 0.000000 0.000000 4.317642 19.556043 -26.929836 20.345075 -31.055889 5.708310 2.154566 14.146727 -14.940570 0.000000 0.000000 0.000000 -7.125000 0.000000 0.000000 -23.024281 43.643539 -0.816910 0.000000 0.000000 0.000000 -4.092364 13.680838 29.511922 -15.490134 -24.824420 -3.429090 -7.889719 13.133330 6.305494 0.000000 0.000000 0.000000 7.125000 0.000000 0.000000 15.712426 35.950634 3.606397
0.074100 15.568329 -6.922867 1.910014 -0.629601 11.581522 0.000000 0.000000 0.000000 -22.339279 -17.275827 -9.086358 1.748829 8.321988 23.696450 0.941124 10.195265 -24.677302 0.004700 0.442965 1.217224 0.000000 0.000000 0.000000 18.198983 13.849833 -18.022250 -3.360185 -11.256471 33.149912 -1.248309 -10.289076 -27.114492 -0.014985 -0.790771 2.173190 -0.721831 -0.594499 -7.968774 -0.988165 -0.795773 -8.684633 -0.652154 -0.394991 -4.571759 11.367371 4.735947 -10.786593 -4.649734 6.052354 41.208685 -3.096976 3.686599 17.552548 0.000000 0.000000 0.000000 4.384603 19.457986 -26.868129 20.438571 -31.167083 5.756621 2.436183 14.026107 -14.986051 0.000000 0.000000 0.000000 -7.125000 0.000000 0.000000 -22.799936 43.716264 -0.764593 0.000000 0.000000 0.000000 -4.145369 13.660954 28.897450 -15.255349 -24.500632 -3.331174 -7.937239 13.668369 6.159550 0.000000 0.000000 0.000000 7.125000 0.000000 0.000000 15.643149 35.811703 3.644445
0.075157 15.566922 -6.909937 1.905663 -0.682239 11.643979 0.000000 0.000000 0.000000 -22.337118 -17.219946 -9.101904 1.744651 8.312666 23.667859 0.950024 10.163141 -24.722416 0.004900 0.450885 1.238997 0.000000 0.000000 0.000000 18.187555 13.831441 -18.070855 -3.364049 -11.262263 33.169564 -1.260155 -10.210580 -27.138496 -0.015000 -0.790022 2.171265 -0.666150 -0.587592 -7.984587 -0.991655 -0.789867 -8.744769 -0.686606 -0.395271 -4.628077 11.359356 4.737310 -10.864219 -4.596332 6.018533 41.109343 -3.072752 3.674568 17.508125 0.000000 0.000000 0.000000 4.317125 19.470996 -26.668993 20.408531 -31.131429 5.741068 2.578357 14.154351 -15.028405 0.000000 0.000000 0.000000 -7.125000 0.000000 0.000000 -22.693855 43.770936 -0.728209 0.000000 0.000000 0.000000 -4.172901 13.642111 28.167517 -15.025598 -24.181788 -3.236454 -7.968423 14.211164 6.034612 0.000000 0.000000 0.000000 7.125000 0.000000 0.000000 15.591857 35.691983 3.678940
0.077273 15.565621 -6.897651 1.911648 -0.810759 11.785192 0.000000 0.000000 0.000000 -22.325508 -17.111221 -9.201263 1.732785 8.285811 23.585480 0.961570 10.100067 -24.762458 0.005393 0.474824 1.304846 0.000000 0.000000 0.000000 18.118738 13.812408 -18.264995 -3.375422 -11.279333 33.227783 -1.281971 -10.008387 -27.138607 -0.015879 -0.814639 2.238867 -0.635490 -0.589689 -8.029188 -0.962813 -0.794503 -8.851158 -0.674215 -0.398641 -4.717166 11.328242 4.750154 -10.926342 -4.593358 6.032482 41.022276 -3.060034 3.672086 17.473500 0.000000 0.000000 0.000000 4.120406 19.633443 -26.487910 20.331535 -31.039699 5.701331 2.538427 14.098402 -15.133564 0.000000 0.000000 0.000000 -7.125000 0.000000 0.000000 -22.768279 43.863450 -0.675748 0.000000 0.000000 0.000000 -4.203213 13.710608 27.434241 -14.871817 -23.967185 -3.173675 -7.972437 14.550231 5.940798 0.000000 0.000000 0.000000 7.125000 0.000000 0.000000 15.569230 35.601012 3.709024
